<svg width="671" height="232" viewBox="0 0 671 232" fill="none" xmlns="http://www.w3.org/2000/svg">
<path d="M598.11 224.17L595.39 231.087H592.066L601.72 207.43H605.363L614.866 231.087H611.592L608.889 224.17H598.11ZM603.5 209.848C603.309 210.475 603.08 211.174 602.811 211.947C602.554 212.708 602.313 213.379 602.089 213.961L599.084 221.668H607.932L604.893 213.861C604.737 213.469 604.53 212.915 604.272 212.198C604.015 211.482 603.757 210.699 603.5 209.848Z" fill="white"/>
<path d="M582.274 207.43V231.087H579.067V207.43H582.274Z" fill="white"/>
<path d="M560.43 210.049V231.087H557.24V210.049H549.113V207.43H568.556V210.049H560.43Z" fill="white"/>
<path d="M527.536 224.17L524.816 231.087H521.491L531.145 207.43H534.789L544.292 231.087H541.018L538.315 224.17H527.536ZM532.925 209.848C532.735 210.475 532.505 211.174 532.237 211.947C531.979 212.708 531.739 213.379 531.515 213.961L528.509 221.668H537.358L534.319 213.861C534.162 213.469 533.955 212.915 533.697 212.198C533.44 211.482 533.183 210.699 532.925 209.848Z" fill="white"/>
<path d="M515.632 214.549C515.632 216.038 515.302 217.331 514.642 218.427C513.981 219.524 513.041 220.375 511.821 220.98C510.612 221.573 509.168 221.869 507.489 221.869H500.538V231.087H497.332V207.43H507.288C509.941 207.43 511.995 208.051 513.45 209.294C514.905 210.536 515.632 212.288 515.632 214.549ZM512.409 214.583C512.409 211.527 510.573 209.999 506.902 209.999H500.538V219.334H507.036C508.827 219.334 510.17 218.942 511.066 218.159C511.961 217.364 512.409 216.172 512.409 214.583Z" fill="white"/>
<path d="M486.314 219.149C486.314 221.679 485.833 223.862 484.87 225.698C483.919 227.533 482.564 228.949 480.807 229.945C479.05 230.93 476.968 231.423 474.561 231.423C472.143 231.423 470.056 230.93 468.298 229.945C466.552 228.96 465.204 227.55 464.252 225.714C463.312 223.879 462.842 221.69 462.842 219.149C462.842 216.62 463.306 214.46 464.235 212.669C465.176 210.867 466.519 209.484 468.265 208.522C470.022 207.559 472.132 207.078 474.595 207.078C477.012 207.078 479.094 207.553 480.84 208.505C482.598 209.456 483.947 210.833 484.887 212.635C485.838 214.426 486.314 216.597 486.314 219.149ZM483.04 219.149C483.04 216.206 482.301 213.894 480.824 212.215C479.357 210.536 477.281 209.697 474.595 209.697C471.886 209.697 469.793 210.525 468.315 212.182C466.838 213.838 466.099 216.161 466.099 219.149C466.099 221.119 466.435 222.832 467.106 224.287C467.778 225.731 468.746 226.85 470.011 227.645C471.276 228.429 472.793 228.82 474.561 228.82C477.292 228.82 479.385 227.981 480.84 226.302C482.307 224.612 483.04 222.228 483.04 219.149Z" fill="white"/>
<path d="M435.856 221.265V231.087H432.649V207.43H443.78C446.444 207.43 448.498 208.029 449.942 209.227C451.397 210.413 452.125 212.07 452.125 214.196C452.125 215.954 451.61 217.431 450.58 218.629C449.562 219.827 448.151 220.582 446.349 220.896L453.065 231.087H449.371L443.226 221.265H435.856ZM448.901 214.23C448.901 212.853 448.431 211.807 447.491 211.09C446.562 210.363 445.219 209.999 443.461 209.999H435.856V218.73H443.596C445.286 218.73 446.59 218.338 447.508 217.554C448.437 216.76 448.901 215.652 448.901 214.23Z" fill="white"/>
<path d="M410.722 231.423C408.786 231.423 407.096 231.065 405.652 230.348C404.208 229.632 403.088 228.608 402.294 227.276C401.499 225.944 401.102 224.349 401.102 222.491V207.43H404.308V222.222C404.308 224.382 404.857 226.022 405.954 227.141C407.051 228.261 408.635 228.82 410.705 228.82C412.832 228.82 414.483 228.244 415.658 227.091C416.845 225.927 417.438 224.231 417.438 222.004V207.43H420.628V222.188C420.628 224.102 420.22 225.748 419.402 227.125C418.597 228.501 417.449 229.565 415.961 230.315C414.483 231.053 412.737 231.423 410.722 231.423Z" fill="white"/>
<path d="M382.981 210.049V231.087H379.791V210.049H371.664V207.43H391.107V210.049H382.981Z" fill="white"/>
<path d="M350.086 224.17L347.366 231.087H344.042L353.696 207.43H357.34L366.843 231.087H363.569L360.865 224.17H350.086ZM355.476 209.848C355.286 210.475 355.056 211.174 354.787 211.947C354.53 212.708 354.289 213.379 354.066 213.961L351.06 221.668H359.908L356.869 213.861C356.713 213.469 356.506 212.915 356.248 212.198C355.991 211.482 355.733 210.699 355.476 209.848Z" fill="white"/>
<path d="M318.27 215.372V231.087H315.416V207.43H319.143L331.937 227.712C331.802 225.507 331.735 223.918 331.735 222.944V207.43H334.623V231.087H330.761L318.102 210.939C318.124 211.678 318.158 212.417 318.203 213.155C318.247 213.894 318.27 214.633 318.27 215.372Z" fill="white"/>
<path d="M291.805 228.804V231.423H273.168V207.766H291.116V210.385H276.375V217.974H290.109V220.56H276.375V228.804H291.805Z" fill="white"/>
<path d="M262.154 219.351C262.154 221.847 261.667 223.996 260.693 225.798C259.73 227.6 258.382 228.988 256.647 229.962C254.923 230.936 252.919 231.423 250.636 231.423H241.788V207.766H249.612C253.619 207.766 256.708 208.774 258.88 210.788C261.062 212.792 262.154 215.646 262.154 219.351ZM258.93 219.351C258.93 216.418 258.124 214.185 256.512 212.652C254.912 211.107 252.589 210.335 249.544 210.335H244.994V228.854H250.266C252.024 228.854 253.546 228.468 254.833 227.696C256.132 226.923 257.139 225.826 257.855 224.405C258.572 222.983 258.93 221.299 258.93 219.351Z" fill="white"/>
<path d="M201.42 224.506L198.7 231.423H195.376L205.03 207.766H208.673L218.176 231.423H214.902L212.199 224.506H201.42ZM206.81 210.184C206.619 210.811 206.39 211.51 206.121 212.283C205.864 213.044 205.623 213.715 205.399 214.297L202.394 222.004H211.242L208.203 214.197C208.046 213.805 207.839 213.251 207.582 212.534C207.324 211.818 207.067 211.035 206.81 210.184Z" fill="white"/>
<path d="M187.616 228.804V231.423H172.454V207.766H175.661V228.804H187.616Z" fill="white"/>
<path d="M161.439 219.485C161.439 222.015 160.957 224.198 159.995 226.033C159.043 227.869 157.689 229.285 155.932 230.281C154.174 231.266 152.092 231.759 149.686 231.759C147.268 231.759 145.181 231.266 143.423 230.281C141.677 229.296 140.328 227.886 139.377 226.05C138.437 224.215 137.967 222.026 137.967 219.485C137.967 216.956 138.431 214.795 139.36 213.005C140.3 211.202 141.644 209.82 143.39 208.857C145.147 207.895 147.257 207.414 149.719 207.414C152.137 207.414 154.219 207.889 155.965 208.841C157.723 209.792 159.071 211.169 160.012 212.971C160.963 214.762 161.439 216.933 161.439 219.485ZM158.165 219.485C158.165 216.542 157.426 214.23 155.948 212.551C154.482 210.872 152.406 210.033 149.719 210.033C147.011 210.033 144.918 210.861 143.44 212.518C141.963 214.174 141.224 216.497 141.224 219.485C141.224 221.455 141.56 223.168 142.231 224.623C142.903 226.067 143.871 227.186 145.136 227.981C146.401 228.765 147.917 229.156 149.686 229.156C152.417 229.156 154.51 228.317 155.965 226.638C157.432 224.948 158.165 222.564 158.165 219.485Z" fill="white"/>
<path d="M118.39 229.123C121.703 229.123 124.193 227.483 125.861 224.203L128.48 225.513C127.506 227.55 126.135 229.1 124.367 230.164C122.609 231.227 120.567 231.759 118.238 231.759C115.843 231.759 113.784 231.261 112.06 230.264C110.336 229.268 109.01 227.852 108.081 226.017C107.163 224.17 106.704 221.993 106.704 219.485C106.704 216.967 107.163 214.807 108.081 213.005C108.998 211.202 110.319 209.82 112.043 208.857C113.767 207.895 115.826 207.414 118.222 207.414C120.74 207.414 122.844 207.906 124.535 208.891C126.225 209.876 127.467 211.337 128.262 213.273L125.223 214.281C124.675 212.904 123.79 211.852 122.57 211.124C121.361 210.397 119.923 210.033 118.255 210.033C115.636 210.033 113.599 210.878 112.144 212.568C110.689 214.247 109.961 216.553 109.961 219.485C109.961 221.411 110.302 223.101 110.985 224.556C111.679 226 112.653 227.125 113.907 227.931C115.172 228.725 116.666 229.123 118.39 229.123Z" fill="white"/>
<path d="M96.8462 224.892C96.8462 227.074 95.9899 228.765 94.2774 229.962C92.576 231.16 90.175 231.759 87.0745 231.759C81.31 231.759 77.9689 229.755 77.051 225.748L80.1571 225.127C80.5153 226.548 81.2765 227.595 82.4405 228.266C83.6046 228.927 85.1885 229.257 87.1921 229.257C89.2628 229.257 90.8578 228.905 91.9771 228.199C93.1077 227.483 93.6729 226.436 93.6729 225.06C93.6729 224.287 93.4938 223.66 93.1356 223.179C92.7887 222.698 92.2962 222.301 91.6581 221.987C91.0201 221.674 90.259 221.411 89.3747 221.198C88.4905 220.985 87.5111 220.756 86.4365 220.51C85.1941 220.23 84.1531 219.956 83.3136 219.687C82.4853 219.418 81.8025 219.138 81.2653 218.847C80.728 218.545 80.2691 218.226 79.8885 217.89C79.3288 217.376 78.8979 216.777 78.5957 216.094C78.3047 215.411 78.1591 214.628 78.1591 213.743C78.1591 211.717 78.9315 210.156 80.4761 209.059C82.032 207.962 84.2538 207.414 87.1417 207.414C89.8281 207.414 91.882 207.828 93.3035 208.656C94.7251 209.473 95.7213 210.872 96.2921 212.853L93.1356 213.408C92.7887 212.154 92.1283 211.247 91.1544 210.688C90.1806 210.117 88.8319 209.831 87.1081 209.831C85.2165 209.831 83.7725 210.145 82.7763 210.772C81.7801 211.398 81.282 212.333 81.282 213.575C81.282 214.303 81.4723 214.907 81.8529 215.389C82.2447 215.859 82.8043 216.256 83.5319 216.581C84.2147 216.905 85.6642 217.314 87.8804 217.806C88.7871 218.019 89.6825 218.243 90.5668 218.478C91.4511 218.702 92.285 218.987 93.0685 219.334C93.5274 219.525 93.9639 219.76 94.3781 220.039C94.8034 220.308 95.1728 220.622 95.4862 220.98C95.9116 221.45 96.2418 222.004 96.4768 222.642C96.7231 223.28 96.8462 224.03 96.8462 224.892Z" fill="white"/>
<path d="M67.478 228.804V231.423H48.8413V207.766H66.7896V210.385H52.0482V217.974H65.7822V220.56H52.0482V228.804H67.478Z" fill="white"/>
<path d="M446.514 42.6662V68.1706H432.45V1.00122H466.011C474.02 1.00122 480.202 2.73329 484.556 6.19743C488.91 9.62979 491.087 14.5718 491.087 21.0233C491.087 25.7269 489.752 29.7949 487.082 33.2273C484.413 36.6278 480.805 38.8684 476.261 39.949L494.424 68.1706H478.597L463.008 42.6662H446.514ZM476.928 21.5954C476.928 18.3855 475.895 15.9701 473.829 14.3493C471.764 12.7284 468.665 11.918 464.533 11.918H446.514V31.7494H464.915C468.856 31.7494 471.843 30.8596 473.877 29.0798C475.911 27.3001 476.928 24.8053 476.928 21.5954Z" fill="white"/>
<path d="M328.911 11.8704V68.1706H314.848V11.8704H293.157V1.00122H350.649V11.8704H328.911Z" fill="white"/>
<path fill-rule="evenodd" clip-rule="evenodd" d="M245.244 68.1704L251.202 51.0089H276.803L279.386 58.4483L290.894 52.24L272.274 1.00122H255.685L231.181 68.1704H245.244ZM292.515 56.7039L280.946 62.9455L282.761 68.1704H296.682L292.515 56.7039ZM262.643 15.9225C263.217 14.1428 263.662 12.6172 263.978 11.3459C264.391 12.649 264.79 13.9679 265.171 15.3028C265.552 16.6374 265.965 17.9566 266.41 19.2594L273.657 40.4256H254.35L261.404 19.6884C261.659 18.9577 262.072 17.7022 262.643 15.9225Z" fill="white"/>
<path d="M195.094 43.5243V68.1706H181.031V1.00122H230.562V11.8704H195.094V32.6552H229.465V43.5243H195.094Z" fill="white"/>
<path fill-rule="evenodd" clip-rule="evenodd" d="M417.531 52.6294C420.36 47.3858 421.773 41.2678 421.773 34.276C421.773 27.1569 420.422 21.039 417.721 15.9224C415.019 10.8055 411.142 6.8805 406.09 4.14757C401.036 1.38252 394.949 0 387.831 0C380.744 0 374.657 1.36646 369.574 4.09968C364.52 6.80106 360.642 10.7103 357.94 15.8269C355.272 20.9437 353.937 27.0933 353.937 34.276C353.937 41.4585 355.288 47.6559 357.988 52.868C360.691 58.08 364.568 62.1003 369.619 64.9287C374.674 67.7256 380.712 69.1239 387.737 69.1239C394.601 69.1239 400.575 67.678 405.661 64.7859C410.777 61.8938 414.734 57.8417 417.531 52.6294ZM396.369 22.4717C396.369 26.1157 394.08 29.2248 390.861 30.4396C391.609 32.3257 392.201 34.5757 392.201 36.9697V50.1958C392.201 56.2705 392.761 57.347 392.761 57.347H382.953C382.953 57.347 383.513 56.3858 383.513 50.3111V37.0849C383.513 34.6557 384.116 32.3656 384.873 30.4488C381.641 29.2406 379.342 26.1248 379.342 22.4717C379.342 17.7698 383.153 13.958 387.856 13.958C392.559 13.958 396.369 17.7698 396.369 22.4717Z" fill="#ECD5B6"/>
<path d="M648.142 133.205C648.142 114.073 643.168 98.4194 627.225 98.4194C611.919 98.4194 605.925 113.563 605.925 133.587C605.925 152.719 610.899 168.827 626.842 168.827C642.148 168.827 648.142 153.229 648.142 133.205ZM670.973 132.439C670.973 155.525 659.621 184.26 627.225 184.26C596.231 184.26 583.094 160.244 583.094 134.225C583.094 111.139 594.446 82.9863 626.842 82.9863C657.836 82.9863 670.973 106.548 670.973 132.439Z" fill="white"/>
<path d="M569.129 159.516L576.399 174.949C576.399 174.949 568.236 184.005 545.788 184.005C523.723 184.005 500.637 172.908 500.637 137.961C500.637 107.222 519.386 90.2588 546.809 90.2588C567.981 90.2588 576.527 97.6564 576.527 97.6564L569.767 114.365C569.767 114.365 565.813 106.202 549.997 106.202C530.993 106.202 523.468 119.084 523.468 137.451C523.468 160.664 536.222 167.807 548.977 167.807C564.92 167.807 569.129 159.516 569.129 159.516Z" fill="white"/>
<path d="M486.472 182.603H461.856C461.856 182.603 463.259 179.414 463.259 159.262V115.386C463.259 95.2339 461.856 91.6626 461.856 91.6626H486.472C486.472 91.6626 485.069 94.8512 485.069 115.003V158.879C485.069 179.031 486.472 182.603 486.472 182.603Z" fill="white"/>
<path d="M452.95 91.6626V109.647C452.95 109.647 448.741 107.988 432.16 107.988H426.676V158.879C426.676 179.031 428.079 182.603 428.079 182.603H403.335C403.335 182.603 404.738 179.414 404.738 159.262V107.988H399.253C382.162 107.988 378.463 109.647 378.463 109.647V91.6626H452.95Z" fill="white"/>
<path d="M371.9 156.711C371.9 176.225 357.615 184.005 336.697 184.005C314.249 184.005 304.301 174.95 304.301 174.95L311.698 159.899C311.698 159.899 317.948 168.445 334.656 168.445C343.585 168.445 350.217 165.766 350.217 158.624C350.217 151.354 344.477 149.313 333.126 144.339C322.667 139.747 307.999 134.007 307.999 116.661C307.999 98.8048 320.626 90.2593 341.416 90.2593C361.569 90.2593 371.007 97.6569 371.007 97.6569L364.375 113.983C364.375 113.983 359.4 105.692 343.202 105.692C334.529 105.692 329.172 108.371 329.172 114.621C329.172 121.508 333.381 122.911 345.88 128.268C356.722 132.86 371.9 138.344 371.9 156.711Z" fill="white"/>
<path d="M291.789 182.603H267.173C267.173 182.603 268.576 179.414 268.576 159.262V115.386C268.576 95.2339 267.173 91.6626 267.173 91.6626H291.789C291.789 91.6626 290.386 94.8512 290.386 115.003V158.879C290.386 179.031 291.789 182.603 291.789 182.603Z" fill="white"/>
<path d="M254.046 182.603H197.671C197.671 182.603 199.074 179.414 199.074 159.262V115.386C199.074 95.2339 197.671 91.6626 197.671 91.6626H222.287C222.287 91.6626 220.884 94.8512 220.884 115.003V165.384H232.364C249.837 165.384 254.046 163.726 254.046 163.726V182.603Z" fill="white"/>
<path d="M160.755 137.068C160.755 117.936 155.781 105.692 139.837 105.692C124.532 105.692 118.537 117.426 118.537 137.451C118.537 156.583 123.512 168.827 139.455 168.827C154.76 168.827 160.755 157.093 160.755 137.068ZM183.586 136.303C183.586 159.389 172.234 184.26 139.837 184.26C108.844 184.26 95.7065 164.108 95.7065 138.088C95.7065 115.003 107.058 90.2588 139.455 90.2588C170.448 90.2588 183.586 110.411 183.586 136.303Z" fill="white"/>
<path d="M81.5023 182.602H56.7584C56.7584 182.602 58.1614 179.413 58.1614 159.261V145.104H23.2138V158.879C23.2138 179.031 24.6168 182.602 24.6168 182.602H0.000488281C0.000488281 182.602 1.40349 179.413 1.40349 159.261V109.476C1.40349 89.324 0.000488281 83.0254 0.000488281 83.0254H24.6168C24.6168 83.0254 23.2138 88.9414 23.2138 109.094V127.757H58.1614V109.476C58.1614 89.324 56.7584 83.0254 56.7584 83.0254H81.5023C81.5023 83.0254 80.0992 88.9414 80.0992 109.094V158.879C80.0992 179.031 81.5023 182.602 81.5023 182.602Z" fill="white"/>
<path d="M308.733 47.9514C313.303 58.0474 308.307 69.8966 297.888 73.6729L272.082 83.0262C268.874 76.1687 271.575 67.9996 278.237 64.4049L308.733 47.9514Z" fill="white"/>
<path d="M308.735 47.9514C313.305 58.0475 308.309 69.8966 297.89 73.6729L272.084 83.0262C271.989 82.8222 271.899 82.617 271.814 82.4108C271.809 82.4004 271.804 82.3905 271.8 82.3801C269.137 75.8798 271.615 68.3891 277.627 64.7563C277.827 64.6352 278.032 64.5172 278.24 64.4049L280.944 62.9456L292.514 56.704L308.735 47.9514Z" fill="white"/>
</svg>
